<svg data-v-0dd9719b="" version="1.0" xmlns="http://www.w3.org/2000/svg" xmlns:xlink="http://www.w3.org/1999/xlink" width="100%" height="100%" viewBox="0 0 340.000000 250.000000" preserveAspectRatio="xMidYMid meet" color-interpolation-filters="sRGB" style="margin: auto;"> <rect data-v-0dd9719b="" x="0" y="0" width="100%" height="100%" fill="#ffffff" fill-opacity="1" class="background"></rect> <rect data-v-0dd9719b="" x="0" y="0" width="100%" height="100%" fill="url(#watermark)" fill-opacity="1" class="watermarklayer"></rect> <g data-v-0dd9719b="" fill="#333333" class="icon-text-wrapper icon-svg-group iconsvg" transform="translate(47.94000244140625,97.9334716796875)"><g class="iconsvg-imagesvg" transform="translate(0,0)"><g><rect fill="#333333" fill-opacity="0" stroke-width="2" x="0" y="0" width="60" height="54.13305905916744" class="image-rect"></rect> <svg filter="url(#colors3165821669)" x="0" y="0" width="60" height="54.13305905916744" filtersec="colorsf8434523522" class="image-svg-svg primary" style="overflow: visible;"><svg xmlns="http://www.w3.org/2000/svg" xmlns:xlink="http://www.w3.org/1999/xlink" version="1.1" x="0px" y="0px" viewBox="4.999451637268066 9.400003433227539 90.00054931640625 81.19999694824219" enable-background="new 0 0 100 100" xml:space="preserve"><g><path d="M94.9,77.3c0-0.8-0.6-20.3-23.6-31.2c-0.4-0.2-0.9-0.4-1.3-0.6c0.6-0.5,0.9-1.2,0.9-2c-0.9-23.7-17.4-32.3-18.1-32.7   l-2.2-1.1c-0.7-0.4-1.5-0.4-2.2,0l-2.2,1.1C45.4,11.2,28,20.2,28,45.5c0,0.6,0,1.2,0,1.8c-0.7-0.3-1.6-0.3-2.3,0.1   C5.2,58.7,5,77.3,5,77.4C4.9,87.6,18.5,89.5,23,90.2c1.8,0.3,3.7,0.4,5.6,0.4c8.3,0,16.6-2.6,24-7.4c0,1,0.6,1.9,1.5,2.3l0.9,0.4   c5.7,2.4,11.4,3.6,17,3.6c11.9,0,19.2-5.5,20-6.1l2-1.5c0.6-0.5,1-1.2,1-2L94.9,77.3z M48.4,15.3l1.1-0.6l1.1,0.6   c0.6,0.3,14.5,7.6,15.3,28.4c0,0.1,0,0.1,0,0.2c-0.2-0.1-0.3-0.1-0.5-0.2c0,0,0,0,0,0c0,0,0,0,0,0c-1.5-0.5-3.1-0.9-4.6-1.3   c-0.8-11.7-6.4-18.1-9.8-20.8c-0.9-0.8-2.3-0.8-3.2,0C44.2,24.7,38,31.9,38,45.5c0,2.1,0.2,4.1,0.5,6.2c0,0,0,0,0,0   c0.7,4.2,2,8,4,11.2c1.2,2.1,2.7,4,4.4,5.8c-0.2,0.2-0.3,0.3-0.5,0.5L45,70.3c-0.7,0.5-1.4,0.9-2.2,1.3c-1.8-1.9-3.3-4-4.6-6.2   c-2.3-3.8-3.9-8.2-4.6-13c0,0,0,0,0,0c-0.4-2.3-0.5-4.6-0.5-6.9C33,23.3,47.8,15.6,48.4,15.3z M50.3,64.9c-1.4-1.4-2.5-2.9-3.5-4.6   c-0.6-1-1.1-2.1-1.6-3.3c1.3-0.2,2.6-0.4,3.8-0.4c0,0,0.1,0,0.1,0l0.6,0c1.7-0.2,3.4-0.2,5.1,0c-0.5,1.3-1.1,2.6-1.8,3.7   c0,0,0,0.1-0.1,0.1l-0.2,0.4c0,0,0,0.1-0.1,0.1C52,62.4,51.2,63.7,50.3,64.9z M55.8,41.7c-2.5-0.2-4.9-0.2-7.4,0   c-1.8,0-3.5,0.2-5.3,0.5c0.7-7.7,3.8-12.5,6.3-15.2C52,29.6,55,34.2,55.8,41.7z M33.9,68c1.2,2.1,2.6,4,4.2,5.8   c-4.3,1.6-8.7,2.1-12.9,1.5c-2-0.3-3.5-0.6-4.5-0.9c1-3.3,3.7-8.4,10.2-12.7C31.7,64,32.7,66.1,33.9,68z M28.6,85.6   c-1.6,0-3.3-0.1-4.9-0.3c-5.9-0.8-13.8-2.6-13.7-7.7c0-0.6,0.5-16,18.2-25.7c0.1,0,0.2-0.1,0.2-0.2c0.1,0.5,0.1,1,0.2,1.6   c0,0,0,0,0,0c0.2,1.3,0.4,2.5,0.7,3.7c-10.9,6.5-13.5,15.3-14.2,18.8c-0.2,1.1,0.4,2.3,1.5,2.7c1.7,0.7,4.3,1.4,7.8,1.8   c1.4,0.2,2.8,0.3,4.1,0.3c6.6,0,13.3-2.2,19.3-6.3c0.1,0,0.1-0.1,0.2-0.1l1.5-1.2c0,0,0.1,0,0.1-0.1c3.3-2.9,5.8-6.1,7.5-9.7   l0.2-0.3c1-1.6,1.8-3.4,2.5-5.3c0.3,0.1,0.7,0.2,1,0.3c0,0,0,0,0,0c1.2,0.4,2.5,0.9,3.7,1.5c-0.8,2.1-1.7,4.1-2.8,6   c0,0.1-0.1,0.1-0.1,0.2c-2,4.1-4.9,7.9-8.6,11.1l-2.1,1.7C43.9,83.1,36.3,85.6,28.6,85.6z M66,67.8c1.1-1.9,2.1-3.9,2.9-6   c5.9,3.8,8.7,8.3,10,11.6c-3.4,1.1-8.8,1.8-15.8-0.6C64.2,71.2,65.2,69.6,66,67.8z M89,79.4c-0.3,0.2-6.6,5-17,5   c-4.9,0-10-1.1-15-3.2l-0.8-0.4c-0.1,0-0.2-0.1-0.3-0.1l0.2-0.2c0,0,0.1,0,0.1-0.1c1.3-1.1,2.5-2.3,3.6-3.6   c4.7,1.8,8.8,2.5,12.3,2.5c4.9,0,8.6-1.2,10.9-2.3c1.1-0.5,1.7-1.7,1.4-2.9c-1.2-4.7-5-13.3-17.3-19.2c-1.5-0.7-3.1-1.4-4.7-1.9   c0,0,0,0,0,0c-4.5-1.5-8.9-2-13.1-1.5l-0.4,0c-1.7,0-3.4,0.2-5.1,0.6c-0.1-0.4-0.2-0.9-0.3-1.3c-0.2-1.2-0.3-2.4-0.4-3.6   c1.8-0.3,3.7-0.5,5.5-0.6c0.1,0,0.1,0,0.2,0c4.9-0.5,10,0.1,15.1,1.8c0,0,0,0,0,0c0,0,0,0,0,0c1.8,0.6,3.6,1.3,5.3,2.1   c20.2,9.6,20.7,26.6,20.7,26.8l0,1.2L89,79.4z"></path></g></svg></svg> <defs><filter id="colors3165821669"><feColorMatrix type="matrix" values="0 0 0 0 0.21484375  0 0 0 0 0.5  0 0 0 0 0.99609375  0 0 0 1 0" class="icon-fecolormatrix"></feColorMatrix></filter> <filter id="colorsf8434523522"><feColorMatrix type="matrix" values="0 0 0 0 0.99609375  0 0 0 0 0.99609375  0 0 0 0 0.99609375  0 0 0 1 0" class="icon-fecolormatrix"></feColorMatrix></filter> <filter id="colorsb2127905714"><feColorMatrix type="matrix" values="0 0 0 0 0  0 0 0 0 0  0 0 0 0 0  0 0 0 1 0" class="icon-fecolormatrix"></feColorMatrix></filter></defs></g></g> <g transform="translate(67,7.4174652099609375)"><g data-gra="path-name" fill-rule="" class="tp-name iconsvg-namesvg" transform="translate(0,0)"><g transform="scale(1)"><g><path d="M16.86-16.02L24.03-15.99 20.4-18.87 16.86-16.02ZM27.03-10.83L13.53-10.77Q13.02-10.77 13.02-11.58L13.02-11.58 13.02-13.71 12.69-13.71Q12.33-13.74 12.33-14.7L12.33-14.7 12.33-17.61Q12.33-18.45 12.69-18.87L12.69-18.87 16.86-22.41Q17.1-22.59 17.29-22.72 17.49-22.86 17.82-22.83L17.82-22.83 22.71-22.86Q23.28-22.86 23.64-22.5L23.64-22.5 28.11-18.99Q28.56-18.63 28.56-17.49L28.56-17.49 28.56-14.61Q28.5-13.62 28.05-13.62L28.05-13.62 27.48-13.59 27.51-11.67Q27.51-10.83 27.03-10.83L27.03-10.83ZM17.37-3.3L23.52-3.3 23.52-5.4 17.37-5.4 17.37-3.3ZM27.39 1.53L27.39 1.53 13.41 1.53Q12.48 1.53 12.48-0.12L12.48-0.12 12.48-8.13Q12.48-9.69 13.47-9.69L13.47-9.69 27.3-9.75Q28.35-9.69 28.35-8.25L28.35-8.25 28.35 0.03Q28.35 1.53 27.39 1.53ZM6.09-5.04L7.11-5.04 7.11-16.62 6.09-16.62 6.09-5.04ZM10.38 1.53L2.79 1.56Q1.44 1.56 1.44-0.51L1.44-0.51 1.44-21.09Q1.44-22.71 2.7-22.71L2.7-22.71 10.26-22.77Q11.61-22.68 11.61-21.3L11.61-21.3 11.64-0.03Q11.64 1.53 10.38 1.53L10.38 1.53ZM46.29 1.56L46.29 1.56 40.26 1.53Q39.63 1.53 39.6 0.87L39.6 0.87 39.6-3.51Q39.66-4.11 40.29-4.11L40.29-4.11 42.09-4.11 42.09-15.09 38.25-15.09 37.62-13.23Q37.14-12.27 36.45-12.21L36.45-12.21 32.4-12.21Q31.56-12.21 31.47-13.02L31.47-13.02 31.47-15.21Q31.47-15.78 31.65-16.29L31.65-16.29 34.17-22.11Q34.47-22.83 35.31-22.83L35.31-22.83 39.15-22.83Q40.05-22.83 40.14-22.08L40.14-22.08 40.14-20.88 57.54-20.85Q57.99-20.85 58.26-20.64 58.53-20.43 58.53-20.01L58.53-20.01 58.53-18.81Q58.53-18.51 58.32-17.04 58.11-15.57 57.69-12.84L57.69-12.84Q57.42-12.36 56.85-12.36L56.85-12.36 52.14-12.36Q51.54-12.36 51.51-12.93L51.51-12.93 51.51-15.09 48.63-15.09 48.45-0.33Q48.39 1.53 46.29 1.56ZM57.63 1.41L57.63 1.41 53.28 1.41Q52.56 1.41 52.38 0.72L52.38 0.72 50.31-7.23Q50.1-7.77 50.1-8.52L50.1-8.52 50.1-10.53Q50.1-11.28 50.94-11.37L50.94-11.37 55.56-11.37Q55.89-11.34 56.16-11.16 56.43-10.98 56.52-10.65L56.52-10.65Q57.57-6.81 58.03-4.83 58.5-2.85 58.53-2.67L58.53-2.67 58.53 0.6Q58.53 1.38 57.63 1.41ZM37.05 1.41L37.05 1.41 32.55 1.41Q31.47 1.29 31.47 0.12L31.47 0.12 31.44-1.89Q31.44-2.73 31.74-3.54L31.74-3.54 33.72-10.41Q33.9-11.28 34.89-11.28L34.89-11.28 38.79-11.28Q39.87-11.22 39.87-10.2L39.87-10.2Q39.87-9 39.84-8.19 39.81-7.38 39.75-6.9L39.75-6.9 38.19 0.54Q38.01 1.41 37.05 1.41ZM73.14-18.06L73.14-16.92Q77.91-17.13 80.59-17.22 83.28-17.31 83.88-17.31L83.88-17.31 83.88-18.06 73.14-18.06ZM74.82-6.9L80.16-6.9 80.16-8.34 74.82-8.34 74.82-6.9ZM87.63 1.44L87.63 1.44 83.73 1.44Q83.31 1.44 83.01 1.08L83.01 1.08 81.87-0.63Q81.63-1.02 81.63-1.56L81.63-1.56 81.63-2.61 74.94-2.61 74.94-1.44Q74.94-0.84 74.73-0.51L74.73-0.51 73.47 1.08Q73.2 1.41 72.75 1.44L72.75 1.44 69.24 1.44Q68.85 1.44 68.76 0.93L68.76 0.93 68.7-0.57Q68.7-1.05 68.85-1.26L68.85-1.26 70.11-2.61 68.76-2.61Q68.19-2.61 68.19-3.33L68.19-3.33 68.19-6.03Q68.19-6.81 68.7-6.81L68.7-6.81 69.24-6.81 69.24-14.7 68.76-14.7Q68.4-14.73 68.4-15.51L68.4-15.51 68.4-21.18Q68.4-21.99 69.42-21.99L69.42-21.99 75.69-22.02 75.69-22.26Q75.69-22.74 76.29-22.74L76.29-22.74 80.25-22.71Q80.94-22.71 80.94-22.02L80.94-22.02 87.24-22.02Q88.44-21.99 88.44-21.12L88.44-21.12 88.44-15.57Q88.44-14.76 87.72-14.76L87.72-14.76 87.72-14.22Q87.72-13.53 87.24-13.5L87.24-13.5 74.79-13.08 74.79-12.36 87.27-12.36Q87.75-12.36 87.75-11.46L87.75-11.46 87.75-8.91Q87.75-8.28 87.33-8.22L87.33-8.22 85.5-8.22 85.5-6.78 87.9-6.78Q88.44-6.78 88.44-6.06L88.44-6.06 88.47-3.33Q88.47-2.61 87.96-2.61L87.96-2.61 86.31-2.61 87.72-1.32Q87.96-0.99 87.96-0.48L87.96-0.48 87.93 0.9Q87.84 1.44 87.63 1.44ZM66.84-8.43L66.84-8.43 64.05-8.43Q63.42-8.43 63.06-9.06L63.06-9.06 61.83-11.16Q61.71-11.28 61.66-11.67 61.62-12.06 61.6-12.55 61.59-13.05 61.59-13.59 61.59-14.13 61.56-14.61L61.56-14.61Q61.62-15.21 62.28-15.3L62.28-15.3 64.92-15.3Q65.58-15.27 65.97-14.82L65.97-14.82 67.44-12.33Q67.68-12 67.68-11.4L67.68-11.4 67.65-9.03Q67.65-8.46 66.84-8.43ZM67.02-15.81L67.02-15.81 64.11-15.81Q63.51-15.81 63.09-16.5L63.09-16.5 61.83-18.57Q61.68-18.69 61.63-19.05 61.59-19.41 61.58-19.9 61.56-20.4 61.56-20.95 61.56-21.51 61.53-21.99L61.53-21.99Q61.59-22.59 62.28-22.68L62.28-22.68 65.04-22.68Q65.76-22.62 66.15-22.2L66.15-22.2 67.65-19.74Q67.89-19.41 67.89-18.78L67.89-18.78 67.89-16.41Q67.89-15.87 67.02-15.81ZM66.03 1.38L66.03 1.38 62.43 1.38Q61.65 1.38 61.65 0.66L61.65 0.66 61.62-1.29Q61.65-1.53 61.94-3.03 62.22-4.53 62.82-7.35L62.82-7.35Q62.94-7.98 63.6-7.98L63.6-7.98 67.23-7.95Q67.65-7.95 67.77-7.2L67.77-7.2 67.77-5.85Q67.77-5.4 67.58-3.73 67.38-2.07 67.05 0.84L67.05 0.84Q66.81 1.38 66.03 1.38ZM104.55-15.18L92.49-15.18Q91.59-15.21 91.59-16.8L91.59-16.8 91.59-21.48Q91.65-22.44 92.22-22.44L92.22-22.44 95.1-22.44Q95.58-22.44 95.58-21.72L95.58-21.72 95.58-19.35 96.48-19.35 96.48-21.93Q96.54-22.89 97.17-22.89L97.17-22.89 99.9-22.89Q100.5-22.89 100.5-21.93L100.5-21.93 100.5-19.32 101.4-19.32 101.4-21.51Q101.4-22.56 102.03-22.56L102.03-22.56 104.76-22.56Q105.39-22.5 105.39-21.45L105.39-21.45 105.45-16.68Q105.45-15.18 104.55-15.18L104.55-15.18ZM105.12 1.65L92.49 1.71Q91.65 1.68 91.65 0.81L91.65 0.81 91.65-7.32Q91.65-8.25 92.49-8.25L92.49-8.25 100.38-8.25 100.38-9.66 91.98-9.69Q91.53-9.69 91.47-10.74L91.47-10.74 91.47-13.56Q91.53-14.07 91.95-14.07L91.95-14.07 104.43-14.07Q105.39-14.01 105.39-12.9L105.39-12.9 105.39-5.13Q105.39-4.08 104.52-4.08L104.52-4.08 96.45-4.05 96.45-2.67 105.03-2.67Q105.6-2.67 105.6-1.86L105.6-1.86 105.63 0.93Q105.63 1.65 105.12 1.65L105.12 1.65ZM117.72 1.56L113.73 1.59Q112.29 1.59 112.29-0.33L112.29-0.33 112.29-16.95 111.15-16.95 110.91 0.51Q110.91 1.53 110.28 1.53L110.28 1.53 106.71 1.5Q106.05 1.47 106.05 0.48L106.05 0.48Q106.05-1.14 106.05-2.46 106.05-3.78 106.08-4.8L106.08-4.8 106.44-21.39Q106.47-22.83 107.67-22.89L107.67-22.89 116.22-22.92Q117.51-22.89 117.51-21.12L117.51-21.12 117.51-5.76 117.9-5.79Q118.47-5.7 118.47-4.86L118.47-4.86 118.5 0.69Q118.5 1.56 117.72 1.56L117.72 1.56ZM136.29 1.56L136.29 1.56 130.26 1.53Q129.63 1.53 129.6 0.87L129.6 0.87 129.6-3.51Q129.66-4.11 130.29-4.11L130.29-4.11 132.09-4.11 132.09-15.09 128.25-15.09 127.62-13.23Q127.14-12.27 126.45-12.21L126.45-12.21 122.4-12.21Q121.56-12.21 121.47-13.02L121.47-13.02 121.47-15.21Q121.47-15.78 121.65-16.29L121.65-16.29 124.17-22.11Q124.47-22.83 125.31-22.83L125.31-22.83 129.15-22.83Q130.05-22.83 130.14-22.08L130.14-22.08 130.14-20.88 147.54-20.85Q147.99-20.85 148.26-20.64 148.53-20.43 148.53-20.01L148.53-20.01 148.53-18.81Q148.53-18.51 148.32-17.04 148.11-15.57 147.69-12.84L147.69-12.84Q147.42-12.36 146.85-12.36L146.85-12.36 142.14-12.36Q141.54-12.36 141.51-12.93L141.51-12.93 141.51-15.09 138.63-15.09 138.45-0.33Q138.39 1.53 136.29 1.56ZM147.63 1.41L147.63 1.41 143.28 1.41Q142.56 1.41 142.38 0.72L142.38 0.72 140.31-7.23Q140.1-7.77 140.1-8.52L140.1-8.52 140.1-10.53Q140.1-11.28 140.94-11.37L140.94-11.37 145.56-11.37Q145.89-11.34 146.16-11.16 146.43-10.98 146.52-10.65L146.52-10.65Q147.57-6.81 148.03-4.83 148.5-2.85 148.53-2.67L148.53-2.67 148.53 0.6Q148.53 1.38 147.63 1.41ZM127.05 1.41L127.05 1.41 122.55 1.41Q121.47 1.29 121.47 0.12L121.47 0.12 121.44-1.89Q121.44-2.73 121.74-3.54L121.74-3.54 123.72-10.41Q123.9-11.28 124.89-11.28L124.89-11.28 128.79-11.28Q129.87-11.22 129.87-10.2L129.87-10.2Q129.87-9 129.84-8.19 129.81-7.38 129.75-6.9L129.75-6.9 128.19 0.54Q128.01 1.41 127.05 1.41ZM177.87-16.02L177.87-16.02 152.22-16.02Q151.47-16.02 151.47-16.8L151.47-16.8 151.47-21.15Q151.47-21.96 152.16-21.96L152.16-21.96 161.19-21.9 161.19-22.59Q161.19-23.01 162.12-23.01L162.12-23.01 167.76-22.98Q168.78-22.98 168.78-22.41L168.78-22.41 168.78-21.9 177.75-21.9Q178.53-21.9 178.53-21.18L178.53-21.18 178.56-16.8Q178.56-16.02 177.87-16.02ZM177.42 1.53L177.42 1.53 173.4 1.53Q172.8 1.5 172.14 0.93L172.14 0.93 165.15-4.35 158.1 1.02Q157.56 1.44 156.9 1.53L156.9 1.53 152.58 1.5Q151.47 1.5 151.47 0.36L151.47 0.36 151.44-3Q151.44-3.57 152.13-4.08L152.13-4.08 159.09-8.55 152.46-13.65Q152.25-13.89 152.25-14.37L152.25-14.37Q152.25-15.15 152.76-15.21L152.76-15.21 161.07-15.18Q161.37-15.12 161.88-14.88L161.88-14.88 165.09-12.66 168.39-15Q168.6-15.21 169.08-15.21L169.08-15.21 177.12-15.15Q177.78-15.03 177.78-14.34L177.78-14.34Q177.78-13.86 177.57-13.62L177.57-13.62 171.03-8.7 177.84-4.41Q178.53-3.96 178.53-3.06L178.53-3.06 178.53 0.15Q178.53 1.5 177.42 1.53Z" transform="translate(-1.440000057220459, 23.010000228881836)"></path></g> <!----> <!----> <!----> <!----> <!----> <!----> <!----></g></g> <g data-gra="path-slogan" fill-rule="" class="tp-slogan iconsvg-slogansvg" fill="#333333" transform="translate(5,30.720001220703125)"><rect x="0" height="1" y="3.7899999618530273" width="35.959999084472656"></rect> <rect height="1" y="3.7899999618530273" width="35.959999084472656" x="131.15999603271484"></rect> <g transform="translate(38.959999084472656,0)"><g transform="scale(1)"><path d="M2.06-5.06L6.56-5.06L6.56-8.58L7.73-8.58L7.73 0L6.56 0L6.56-3.98L2.06-3.98L2.06 0L0.89 0L0.89-8.58L2.06-8.58L2.06-5.06ZM15.19 0L14.34-2.48L10.88-2.48L9.98 0L8.81 0L12.05-8.58L13.36-8.58L16.45 0L15.19 0ZM12.61-7.31L11.25-3.52L13.92-3.52L12.66-7.31L12.61-7.31ZM21.61-3.70L18.80-3.70L18.80 0L17.63 0L17.63-8.58L21.61-8.58Q24.47-8.58 24.47-6.28L24.47-6.28Q24.47-4.88 23.25-4.22L23.25-4.22Q24.28-3.94 24.28-2.58L24.28-2.58L24.38-1.03Q24.33-0.38 24.80-0.19L24.80-0.19L24.80 0L23.34 0Q23.20-0.61 23.16-2.16L23.16-2.16Q23.20-3.70 21.61-3.70L21.61-3.70ZM21.70-7.64L18.80-7.64L18.80-4.69L21.52-4.69Q23.25-4.69 23.25-6.19L23.25-6.19Q23.25-7.64 21.70-7.64L21.70-7.64ZM29.34-7.64L27.28-7.64L27.28-4.97L29.34-4.97Q31.17-4.92 31.13-6.38L31.13-6.38Q31.13-7.64 29.34-7.64L29.34-7.64ZM29.81 0L26.11 0L26.11-8.58L29.91-8.58Q32.20-8.48 32.30-6.42L32.30-6.42Q32.30-5.16 31.17-4.64L31.17-4.64Q32.77-4.08 32.77-2.53L32.77-2.53Q32.63-0.09 29.81 0L29.81 0ZM29.53-3.98L27.28-3.98L27.28-0.98L29.77-0.98Q31.55-1.03 31.59-2.53L31.59-2.53Q31.59-3.98 29.53-3.98L29.53-3.98ZM34.27-8.58L35.44-8.58L35.44 0L34.27 0L34.27-8.58ZM38.81-8.58L43.13-1.64L43.13-8.58L44.25-8.58L44.25 0L42.94 0L38.58-6.94L38.53-6.94L38.53 0L37.41 0L37.41-8.58L38.81-8.58ZM51.89-4.31L50.53-3.05L50.53 0L49.36 0L49.36-8.58L50.53-8.58L50.53-4.41L54.70-8.58L56.34-8.58L52.73-5.11L56.44 0L54.89 0L51.89-4.31ZM58.64-1.03L63.80-1.03L63.80 0L57.47 0L57.47-8.58L63.70-8.58L63.70-7.59L58.64-7.59L58.64-4.92L63.33-4.92L63.33-3.89L58.64-3.89L58.64-1.03ZM65.30-8.58L66.47-8.58L66.47-1.03L70.83-1.03L70.83 0L65.30 0L65.30-8.58ZM72.61-8.58L75.05-1.27L77.53-8.58L78.84-8.58L75.70 0L74.44 0L71.30-8.58L72.61-8.58ZM80.11-8.58L81.28-8.58L81.28 0L80.11 0L80.11-8.58ZM84.66-8.58L88.97-1.64L88.97-8.58L90.09-8.58L90.09 0L88.78 0L84.42-6.94L84.38-6.94L84.38 0L83.25 0L83.25-8.58L84.66-8.58Z" transform="translate(-0.890625, 8.578125)"></path></g></g></g></g></g><defs v-gra="od"></defs></svg>